PathFileType	4	(X/Y/Z)	/Users/niels/Desktop/University/Third Semester/Perception and Action/Exam/Gymnastics Motion Tracking/Code for Gym Tracking/Analyzed Data/Webcam_Backflip/id3_3_trajectory_Sports2D/id3_3_trajectory_Sports2D_px_person00.trc
DataRate	CameraRate	NumFrames	NumMarkers	Units	OrigDataRate	OrigDataStartFrame	OrigNumFrames
29.8125	29.8125	8	22	m	29.8125	140	160
Frame#	Time	Hip			RHip			RKnee			RAnkle			RBigToe			RSmallToe			RHeel			LHip			LKnee			LAnkle			LBigToe			LSmallToe			LHeel			Neck			Head			Nose			RShoulder			RElbow			RWrist			LShoulder			LElbow			LWrist		
		X1	Y1	Z1	X2	Y2	Z2	X3	Y3	Z3	X4	Y4	Z4	X5	Y5	Z5	X6	Y6	Z6	X7	Y7	Z7	X8	Y8	Z8	X9	Y9	Z9	X10	Y10	Z10	X11	Y11	Z11	X12	Y12	Z12	X13	Y13	Z13	X14	Y14	Z14	X15	Y15	Z15	X16	Y16	Z16	X17	Y17	Z17	X18	Y18	Z18	X19	Y19	Z19	X20	Y20	Z20	X21	Y21	Z21	X22	Y22	Z22
140	4.696016771488469	0.9948272080090697	-0.5777295484916991	0.0	0.9925020376401426	-0.5762561634199223	0.0	0.9926059597036871	-0.6783626733155343	0.0	0.9762259011938936	-0.7915375947550363	0.0	1.0049968261279707	-0.816419322124309	0.0	0.9941745987813347	-0.8186273019400067	0.0	0.9698120664294639	-0.8102170922149949	0.0	0.9951336851559406	-0.5763794305319638	0.0	0.9972469423341688	-0.678374520734173	0.0	0.9786027771253826	-0.7887312410914288	0.0	1.0072945878479103	-0.8106528554963328	0.0	1.004630534428743	-0.8097693194586685	0.0	0.9676448204749067	-0.8053792964351042	0.0	1.0040989030867271	-0.40627656801431566	0.0	1.0278101980890506	-0.3366000491228924	0.0	1.0409097937007181	-0.37645395077096006	0.0	0.9905968644642442	-0.429850607733339	0.0	0.9782035113515467	-0.5138935737087345	0.0	1.0083645236777825	-0.5811443443983172	0.0	1.0005890079049067	-0.42968428323497987	0.0	0.9934980303389681	-0.5065681813276561	0.0	1.0162684366321584	-0.5699480154073191	0.0
141	4.729559748427672	0.9950693048944245	-0.5746694782650393	0.0	0.9924396578327359	-0.5730616653344379	0.0	0.992688808628855	-0.6759382959484107	0.0	0.97611289303045	-0.7890944449498174	0.0	1.0058412740562925	-0.8135968772154929	0.0	0.9946227452268234	-0.8158763141639924	0.0	0.9695140955980951	-0.8077468942769388	0.0	0.9960186420805811	-0.5733010889487136	0.0	0.9976758723030108	-0.6758458336459868	0.0	0.9786633573594732	-0.7862464776788389	0.0	1.0089912416377655	-0.8080453491026239	0.0	1.005924842708912	-0.8070176079472464	0.0	0.9676665541394595	-0.8028598901476016	0.0	1.003022754015538	-0.4035578480957071	0.0	1.0248144422367989	-0.3330002417831462	0.0	1.039112471670344	-0.3723820179090762	0.0	0.9895727100245428	-0.42727449730361383	0.0	0.977960674079407	-0.5111211290105234	0.0	1.0097191352092072	-0.5776941573175587	0.0	1.0000615123508425	-0.4268096234682848	0.0	0.9927651822803778	-0.5033912746437696	0.0	1.015983748983619	-0.566222639131093	0.0
142	4.763102725366876	0.9951945729899313	-0.571276872464539	0.0	0.991903676061476	-0.5696183471879946	0.0	0.9926243463451563	-0.6733805692364452	0.0	0.9761136857733719	-0.7865777766586333	0.0	1.0071373473364513	-0.8103418408959604	0.0	0.9954325184771018	-0.8128350281275064	0.0	0.9694007486421268	-0.8051137571620469	0.0	0.9972646911798689	-0.5699911564713389	0.0	0.9986807379627703	-0.6730791257108915	0.0	0.9789378092541189	-0.7834748832680406	0.0	1.0112030818196194	-0.8052016363674099	0.0	1.0078855847075712	-0.8039056699366284	0.0	0.9680224546591306	-0.7999624530821102	0.0	1.0019563374196359	-0.40075286936966487	0.0	1.0218088215661947	-0.3290043282083032	0.0	1.0369065951872516	-0.36811544150032083	0.0	0.9881153451522297	-0.42471651269857025	0.0	0.9773839368086658	-0.5080493984307367	0.0	1.0107755686814182	-0.5740219744990976	0.0	1.0001183754453358	-0.4240140152357473	0.0	0.9929833797725892	-0.5001576616808702	0.0	1.01622963024724	-0.5627848033870528	0.0
143	4.796645702306079	0.9952084795777333	-0.567877919849902	0.0	0.990819956272887	-0.56622040672833	0.0	0.9922290322621041	-0.6708055810836541	0.0	0.976145146346002	-0.7841433824298387	0.0	1.0086754580995352	-0.8068452453592118	0.0	0.9963511832561482	-0.8096575677538259	0.0	0.9693821568181122	-0.8024200543328933	0.0	0.9990213329424144	-0.5667212205305749	0.0	1.0002829167119787	-0.6702398307302836	0.0	0.9794881043621319	-0.7804907058090684	0.0	1.0137309520456914	-0.8022538922548081	0.0	1.0104166682618612	-0.8005034230035393	0.0	0.9688708683861829	-0.7968035687075411	0.0	1.0008818415300818	-0.3980917536800906	0.0	1.0189107066715584	-0.3249344612319578	0.0	1.0340632102455098	-0.3640976337818703	0.0	0.9859236304269383	-0.42240002674824234	0.0	0.9762151004759173	-0.5049254082539489	0.0	1.0114784183409729	-0.5703501003962145	0.0	1.0010465109896631	-0.4215794385122799	0.0	0.9943466795939097	-0.49720919891427884	0.0	1.016877782228487	-0.5601117831018552	0.0
144	4.830188679245282	0.9952206452273901	-0.564758875506103	0.0	0.9892207026443597	-0.5631361541228559	0.0	0.9913317854390011	-0.6683432130180449	0.0	0.9760722035388907	-0.7819477359905866	0.0	1.0101823562930743	-0.8033297305634131	0.0	0.9971181908325333	-0.8065089317376921	0.0	0.9692622714495421	-0.7997991195383595	0.0	1.0014310752876863	-0.5637401669759085	0.0	1.0023597793202563	-0.6675477702574092	0.0	0.9803523761730727	-0.7773943204323583	0.0	1.0163761215861806	-0.7992680897848627	0.0	1.0133347835158975	-0.7968881848783882	0.0	0.970334994476977	-0.793515349590529	0.0	0.999813584916512	-0.3958008717381823	0.0	1.0161635423612307	-0.3211824183416261	0.0	1.03040440502455	-0.3607457687886205	0.0	0.9827511329854816	-0.42050409099758845	0.0	0.9741454566019899	-0.5019849354567949	0.0	1.0116668478781754	-0.5667700175257065	0.0	1.0031381074600034	-0.41977099659729494	0.0	0.9970909583079535	-0.49486907377543427	0.0	1.0180009452500862	-0.5584791419021702	0.0
145	4.863731656184486	0.9954050755230521	-0.5621493517830585	0.0	0.9872634638751026	-0.5605911728815912	0.0	0.9898815185062387	-0.6661752447881067	0.0	0.9757892739941331	-0.780148753503906	0.0	1.0113871033924378	-0.8000821157920636	0.0	0.9975240039879559	-0.803600616675086	0.0	0.9688454741880068	-0.797464699695729	0.0	1.0045236772803363	-0.5612707093055663	0.0	1.0046783520835936	-0.6652841072037274	0.0	0.9815226365644376	-0.7743943430058126	0.0	1.0188812492470825	-0.7963613525026914	0.0	1.0163395427134176	-0.7932879905034337	0.0	0.9724272739297475	-0.7903367736895692	0.0	0.9988101593456472	-0.39405330235075076	0.0	1.013524786151097	-0.31815094176456793	0.0	1.02586718564089	-0.3583673704716927	0.0	0.9785371720663016	-0.41918436122682723	0.0	0.9709168715336993	-0.49948527561511485	0.0	1.0110561370656568	-0.5632769792446048	0.0	1.0065659223148438	-0.4187845042117428	0.0	1.0014123081093111	-0.49336014982526755	0.0	1.0198333218513287	-0.5579478764101918	0.0
146	4.897274633123689	0.9958837187290802	-0.5602380336780326	0.0	0.9852202836769887	-0.5587760040582084	0.0	0.9880754784359655	-0.6645184204414123	0.0	0.975306444506277	-0.778868456620116	0.0	1.0121158646156656	-0.7974443293773568	0.0	0.9974911241631029	-0.8011967297434281	0.0	0.9680813222993598	-0.7956832614747064	0.0	1.0080418186800149	-0.5594823833016489	0.0	1.0069954516367332	-0.6637013054746419	0.0	0.9829140281538838	-0.7718152467326	0.0	1.0209349104134722	-0.7937808977390712	0.0	1.0190379087081562	-0.7901208148667602	0.0	0.9749827386477922	-0.7876236142555798	0.0	0.9979449193498522	-0.3929112301238286	0.0	1.0109412274045273	-0.31618985724137844	0.0	1.0206248110162148	-0.3571071630673098	0.0	0.9735114112727566	-0.4185517550224629	0.0	0.9664429452112805	-0.49770027381733684	0.0	1.0092906071495538	-0.5599602004368132	0.0	1.0112041929641071	-0.41868801812786716	0.0	1.007335374960984	-0.49279046142829463	0.0	1.0226941771207616	-0.558416497952376	0.0
147	4.930817610062892	0.9966250957335655	-0.5592470277635471	0.0	0.9834228716045289	-0.5579074852359577	0.0	0.9863264939343472	-0.6636287014719701	0.0	0.974756649322329	-0.7782296723038787	0.0	1.0123623718849328	-0.7957764911221021	0.0	0.9971611509685089	-0.799613918926506	0.0	0.9671288186427296	-0.7947353395312258	0.0	1.0114387401268163	-0.5585598863529103	0.0	1.0091385671584523	-0.6629885632338712	0.0	0.9843537993076772	-0.7700633282489525	0.0	1.0222736617897943	-0.7918979422473088	0.0	1.0210493118926551	-0.7879025678770956	0.0	0.9776568021731699	-0.7858064308147799	0.0	0.9972486612164995	-0.39237908815497446	0.0	1.0084158481726504	-0.31555498559986855	0.0	1.0151522421744739	-0.35696720698289197	0.0	0.9682049419550134	-0.4186863392545251	0.0	0.9609084379344738	-0.4968740971510197	0.0	1.0060207281820022	-0.5571912996937979	0.0	1.0165397932340376	-0.41943185730883475	0.0	1.0145872572777601	-0.4931828603548854	0.0	1.0268958828303012	-0.5596947495607026	0.0
